{
	"asset":{
		"generator":"Khronos glTF Blender I/O v4.1.62",
		"version":"2.0"
	},
	"scene":0,
	"scenes":[
		{
			"name":"Scene",
			"nodes":[
				0,
				1,
				2,
				3,
				4,
				5
			]
		}
	],
	"nodes":[
		{
			"mesh":0,
			"name":"Cube",
			"scale":[
				2.021855592727661,
				2.021855592727661,
				2.021855592727661
			],
			"translation":[
				0.22461096942424774,
				-8.386302215512842e-05,
				-0.07728268206119537
			]
		},
		{
			"mesh":1,
			"name":"Cube.001",
			"scale":[
				1.2517898082733154,
				1.2517898082733154,
				1.2517898082733154
			],
			"translation":[
				3.4982542991638184,
				0.0009709543664939702,
				-1.8411437273025513
			]
		},
		{
			"mesh":2,
			"name":"Cylinder",
			"scale":[
				0.715968668460846,
				1.1087285280227661,
				0.715968668460846
			],
			"translation":[
				3.420902729034424,
				-0.0001430861884728074,
				2.567866802215576
			]
		},
		{
			"mesh":3,
			"name":"Cylinder.001",
			"scale":[
				0.7046542763710022,
				0.7046542763710022,
				0.7046542763710022
			],
			"translation":[
				-2.8208701610565186,
				-8.386302215512842e-05,
				-3.098004102706909
			]
		},
		{
			"mesh":3,
			"name":"Cylinder.002",
			"scale":[
				0.7046542763710022,
				0.7046542763710022,
				0.7046542763710022
			],
			"translation":[
				-2.8208701610565186,
				-8.386302215512842e-05,
				-0.06522063910961151
			]
		},
		{
			"mesh":3,
			"name":"Cylinder.003",
			"scale":[
				0.7046542763710022,
				0.7046542763710022,
				0.7046542763710022
			],
			"translation":[
				-2.8208701610565186,
				-8.386302215512842e-05,
				2.967562675476074
			]
		}
	],
	"materials":[
		{
			"doubleSided":true,
			"name":"Buildings.001",
			"pbrMetallicRoughness":{
				"baseColorFactor":[
					0.3107972741127014,
					0.2916283905506134,
					0.2245316207408905,
					1
				],
				"metallicFactor":0
			}
		},
		{
			"doubleSided":true,
			"name":"Buildings",
			"pbrMetallicRoughness":{
				"baseColorFactor":[
					0.3107972741127014,
					0.2916283905506134,
					0.2245316207408905,
					1
				],
				"metallicFactor":0
			}
		},
		{
			"doubleSided":true,
			"name":"Coal",
			"pbrMetallicRoughness":{
				"baseColorFactor":[
					0.007329825311899185,
					0.007329825311899185,
					0.007329825311899185,
					1
				],
				"metallicFactor":0
			}
		},
		{
			"doubleSided":true,
			"name":"Pipes grey",
			"pbrMetallicRoughness":{
				"baseColorFactor":[
					0.6617255210876465,
					0.6617255210876465,
					0.6617255210876465,
					1
				],
				"metallicFactor":0
			}
		},
		{
			"doubleSided":true,
			"name":"PipeRed",
			"pbrMetallicRoughness":{
				"baseColorFactor":[
					0.8005756139755249,
					0.0014013274339959025,
					0,
					1
				],
				"metallicFactor":0
			}
		}
	],
	"meshes":[
		{
			"name":"Cube",
			"primitives":[
				{
					"attributes":{
						"POSITION":0,
						"NORMAL":1,
						"TEXCOORD_0":2
					},
					"indices":3,
					"material":0
				}
			]
		},
		{
			"name":"Cube.001",
			"primitives":[
				{
					"attributes":{
						"POSITION":4,
						"NORMAL":5,
						"TEXCOORD_0":6,
						"TANGENT":7
					},
					"indices":8,
					"material":1
				}
			]
		},
		{
			"name":"Cylinder.002",
			"primitives":[
				{
					"attributes":{
						"POSITION":9,
						"NORMAL":10,
						"TEXCOORD_0":11
					},
					"indices":12,
					"material":2
				}
			]
		},
		{
			"name":"Cylinder.006",
			"primitives":[
				{
					"attributes":{
						"POSITION":13,
						"NORMAL":14,
						"TEXCOORD_0":15
					},
					"indices":16,
					"material":3
				},
				{
					"attributes":{
						"POSITION":17,
						"NORMAL":18,
						"TEXCOORD_0":19
					},
					"indices":20,
					"material":4
				}
			]
		}
	],
	"accessors":[
		{
			"bufferView":0,
			"componentType":5126,
			"count":56,
			"max":[
				1,
				2,
				2.2886221408843994
			],
			"min":[
				-1,
				0,
				-2.2886221408843994
			],
			"type":"VEC3"
		},
		{
			"bufferView":1,
			"componentType":5126,
			"count":56,
			"type":"VEC3"
		},
		{
			"bufferView":2,
			"componentType":5126,
			"count":56,
			"type":"VEC2"
		},
		{
			"bufferView":3,
			"componentType":5123,
			"count":102,
			"type":"SCALAR"
		},
		{
			"bufferView":4,
			"componentType":5126,
			"count":48,
			"max":[
				1,
				2,
				2.2886221408843994
			],
			"min":[
				-1,
				0,
				-2.2886221408843994
			],
			"type":"VEC3"
		},
		{
			"bufferView":5,
			"componentType":5126,
			"count":48,
			"type":"VEC3"
		},
		{
			"bufferView":6,
			"componentType":5126,
			"count":48,
			"type":"VEC2"
		},
		{
			"bufferView":7,
			"componentType":5126,
			"count":48,
			"type":"VEC4"
		},
		{
			"bufferView":8,
			"componentType":5123,
			"count":84,
			"type":"SCALAR"
		},
		{
			"bufferView":9,
			"componentType":5126,
			"count":80,
			"max":[
				1.5580101013183594,
				1.2887001037597656,
				1.5580105781555176
			],
			"min":[
				-1.5580103397369385,
				-0.00031006429344415665,
				-1.5580098628997803
			],
			"type":"VEC3"
		},
		{
			"bufferView":10,
			"componentType":5126,
			"count":80,
			"type":"VEC3"
		},
		{
			"bufferView":11,
			"componentType":5126,
			"count":80,
			"type":"VEC2"
		},
		{
			"bufferView":12,
			"componentType":5123,
			"count":132,
			"type":"SCALAR"
		},
		{
			"bufferView":13,
			"componentType":5126,
			"count":448,
			"max":[
				1.4128282070159912,
				13.978275299072266,
				1.4128278493881226
			],
			"min":[
				-1.4128282070159912,
				0,
				-1.4128284454345703
			],
			"type":"VEC3"
		},
		{
			"bufferView":14,
			"componentType":5126,
			"count":448,
			"type":"VEC3"
		},
		{
			"bufferView":15,
			"componentType":5126,
			"count":448,
			"type":"VEC2"
		},
		{
			"bufferView":16,
			"componentType":5123,
			"count":756,
			"type":"SCALAR"
		},
		{
			"bufferView":17,
			"componentType":5126,
			"count":256,
			"max":[
				1.3214695453643799,
				13.320087432861328,
				1.3214693069458008
			],
			"min":[
				-1.3214695453643799,
				2.819491386413574,
				-1.321469783782959
			],
			"type":"VEC3"
		},
		{
			"bufferView":18,
			"componentType":5126,
			"count":256,
			"type":"VEC3"
		},
		{
			"bufferView":19,
			"componentType":5126,
			"count":256,
			"type":"VEC2"
		},
		{
			"bufferView":20,
			"componentType":5123,
			"count":384,
			"type":"SCALAR"
		}
	],
	"bufferViews":[
		{
			"buffer":0,
			"byteLength":672,
			"byteOffset":0,
			"target":34962
		},
		{
			"buffer":0,
			"byteLength":672,
			"byteOffset":672,
			"target":34962
		},
		{
			"buffer":0,
			"byteLength":448,
			"byteOffset":1344,
			"target":34962
		},
		{
			"buffer":0,
			"byteLength":204,
			"byteOffset":1792,
			"target":34963
		},
		{
			"buffer":0,
			"byteLength":576,
			"byteOffset":1996,
			"target":34962
		},
		{
			"buffer":0,
			"byteLength":576,
			"byteOffset":2572,
			"target":34962
		},
		{
			"buffer":0,
			"byteLength":384,
			"byteOffset":3148,
			"target":34962
		},
		{
			"buffer":0,
			"byteLength":768,
			"byteOffset":3532,
			"target":34962
		},
		{
			"buffer":0,
			"byteLength":168,
			"byteOffset":4300,
			"target":34963
		},
		{
			"buffer":0,
			"byteLength":960,
			"byteOffset":4468,
			"target":34962
		},
		{
			"buffer":0,
			"byteLength":960,
			"byteOffset":5428,
			"target":34962
		},
		{
			"buffer":0,
			"byteLength":640,
			"byteOffset":6388,
			"target":34962
		},
		{
			"buffer":0,
			"byteLength":264,
			"byteOffset":7028,
			"target":34963
		},
		{
			"buffer":0,
			"byteLength":5376,
			"byteOffset":7292,
			"target":34962
		},
		{
			"buffer":0,
			"byteLength":5376,
			"byteOffset":12668,
			"target":34962
		},
		{
			"buffer":0,
			"byteLength":3584,
			"byteOffset":18044,
			"target":34962
		},
		{
			"buffer":0,
			"byteLength":1512,
			"byteOffset":21628,
			"target":34963
		},
		{
			"buffer":0,
			"byteLength":3072,
			"byteOffset":23140,
			"target":34962
		},
		{
			"buffer":0,
			"byteLength":3072,
			"byteOffset":26212,
			"target":34962
		},
		{
			"buffer":0,
			"byteLength":2048,
			"byteOffset":29284,
			"target":34962
		},
		{
			"buffer":0,
			"byteLength":768,
			"byteOffset":31332,
			"target":34963
		}
	],
	"buffers":[
		{
			"byteLength":32100,
			"uri":"Coal-cef47e2752f910f61ecd73a2cf3ad907.bin"
		}
	]
}
