{
	"asset":{
		"generator":"Khronos glTF Blender I/O v4.1.63",
		"version":"2.0"
	},
	"scene":0,
	"scenes":[
		{
			"name":"Scene",
			"nodes":[
				0,
				1,
				2,
				3,
				4,
				5,
				6,
				7,
				8,
				9,
				10,
				11
			]
		}
	],
	"nodes":[
		{
			"mesh":0,
			"name":"Cube",
			"scale":[
				1.0199998617172241,
				1.0199998617172241,
				1.0199998617172241
			],
			"translation":[
				-0.7753890156745911,
				-8.386302215512842e-05,
				-2.077282667160034
			]
		},
		{
			"mesh":1,
			"name":"Cube.001",
			"scale":[
				0.6315116286277771,
				0.6315116286277771,
				0.6315116286277771
			],
			"translation":[
				3.4982542991638184,
				0.0009709543664939702,
				-1.8411437273025513
			]
		},
		{
			"mesh":2,
			"name":"Cylinder",
			"scale":[
				0.7180207371711731,
				0.6288387179374695,
				0.7180207371711731
			],
			"translation":[
				1.4811073541641235,
				-0.0001430861884728074,
				-0.8355928063392639
			]
		},
		{
			"mesh":3,
			"name":"Cylinder.001",
			"scale":[
				0.3554888963699341,
				0.3554888963699341,
				0.3554888963699341
			],
			"translation":[
				-2.8208701610565186,
				-8.386302215512842e-05,
				-3.6799428462982178
			]
		},
		{
			"mesh":3,
			"name":"Cylinder.002",
			"scale":[
				0.3554888963699341,
				0.3554888963699341,
				0.3554888963699341
			],
			"translation":[
				-2.8208701610565186,
				-8.386302215512842e-05,
				-2.392975330352783
			]
		},
		{
			"mesh":3,
			"name":"Cylinder.003",
			"scale":[
				0.3554888963699341,
				0.3554888963699341,
				0.3554888963699341
			],
			"translation":[
				-2.8208701610565186,
				-8.386302215512842e-05,
				-1.1412773132324219
			]
		},
		{
			"mesh":4,
			"name":"Cylinder.004",
			"scale":[
				0.6068252325057983,
				0.3977278769016266,
				0.6068252325057983
			],
			"translation":[
				1.4811073541641235,
				-0.0001430861884728074,
				-3.2162508964538574
			]
		},
		{
			"mesh":5,
			"name":"Cube.002",
			"rotation":[
				0,
				0.7071068286895752,
				0,
				0.7071068286895752
			],
			"scale":[
				1.0199998617172241,
				1.0199998617172241,
				1.0199998617172241
			],
			"translation":[
				2.601618528366089,
				-8.386302215512842e-05,
				3.4246833324432373
			]
		},
		{
			"mesh":6,
			"name":"Cube.003",
			"rotation":[
				0,
				0.7071068286895752,
				0,
				0.7071068286895752
			],
			"scale":[
				0.6315116286277771,
				0.6315116286277771,
				0.6315116286277771
			],
			"translation":[
				3.4920122623443604,
				0.0009709543664939702,
				1.768897533416748
			]
		},
		{
			"mesh":7,
			"name":"Cylinder.005",
			"scale":[
				0.3554888963699341,
				0.3554888963699341,
				0.3554888963699341
			],
			"translation":[
				-0.46372389793395996,
				-8.386302215512842e-05,
				2.8194918632507324
			]
		},
		{
			"mesh":7,
			"name":"Cylinder.006",
			"scale":[
				0.3554888963699341,
				0.3554888963699341,
				0.3554888963699341
			],
			"translation":[
				-0.46372389793395996,
				-8.386302215512842e-05,
				4.071189880371094
			]
		},
		{
			"mesh":8,
			"name":"Cube.004",
			"scale":[
				0.6315116286277771,
				0.5504958629608154,
				0.2780081033706665
			],
			"translation":[
				-3.1159298419952393,
				0.0009709543664939702,
				3.558990955352783
			]
		}
	],
	"materials":[
		{
			"doubleSided":true,
			"name":"Buildings.001",
			"pbrMetallicRoughness":{
				"baseColorFactor":[
					0.3107972741127014,
					0.2916283905506134,
					0.2245316207408905,
					1
				],
				"metallicFactor":0
			}
		},
		{
			"doubleSided":true,
			"name":"Buildings",
			"pbrMetallicRoughness":{
				"baseColorFactor":[
					0.3107972741127014,
					0.2916283905506134,
					0.2245316207408905,
					1
				],
				"metallicFactor":0
			}
		},
		{
			"doubleSided":true,
			"name":"Coal",
			"pbrMetallicRoughness":{
				"baseColorFactor":[
					0.007329825311899185,
					0.007329825311899185,
					0.007329825311899185,
					1
				],
				"metallicFactor":0
			}
		},
		{
			"doubleSided":true,
			"name":"Pipes grey",
			"pbrMetallicRoughness":{
				"baseColorFactor":[
					0.6617255210876465,
					0.6617255210876465,
					0.6617255210876465,
					1
				],
				"metallicFactor":0
			}
		},
		{
			"doubleSided":true,
			"name":"PipeRed",
			"pbrMetallicRoughness":{
				"baseColorFactor":[
					0.8005756139755249,
					0.0014013274339959025,
					0,
					1
				],
				"metallicFactor":0
			}
		}
	],
	"meshes":[
		{
			"name":"Cube",
			"primitives":[
				{
					"attributes":{
						"POSITION":0,
						"NORMAL":1,
						"TEXCOORD_0":2
					},
					"indices":3,
					"material":0
				}
			]
		},
		{
			"name":"Cube.001",
			"primitives":[
				{
					"attributes":{
						"POSITION":4,
						"NORMAL":5,
						"TEXCOORD_0":6,
						"TANGENT":7
					},
					"indices":8,
					"material":1
				}
			]
		},
		{
			"name":"Cylinder.002",
			"primitives":[
				{
					"attributes":{
						"POSITION":9,
						"NORMAL":10,
						"TEXCOORD_0":11
					},
					"indices":12,
					"material":2
				}
			]
		},
		{
			"name":"Cylinder.006",
			"primitives":[
				{
					"attributes":{
						"POSITION":13,
						"NORMAL":14,
						"TEXCOORD_0":15
					},
					"indices":16,
					"material":3
				},
				{
					"attributes":{
						"POSITION":17,
						"NORMAL":18,
						"TEXCOORD_0":19
					},
					"indices":20,
					"material":4
				}
			]
		},
		{
			"name":"Cylinder.001",
			"primitives":[
				{
					"attributes":{
						"POSITION":21,
						"NORMAL":22,
						"TEXCOORD_0":23
					},
					"indices":12,
					"material":2
				}
			]
		},
		{
			"name":"Cube.002",
			"primitives":[
				{
					"attributes":{
						"POSITION":24,
						"NORMAL":25,
						"TEXCOORD_0":26
					},
					"indices":3,
					"material":0
				}
			]
		},
		{
			"name":"Cube.003",
			"primitives":[
				{
					"attributes":{
						"POSITION":27,
						"NORMAL":28,
						"TEXCOORD_0":29,
						"TANGENT":30
					},
					"indices":8,
					"material":1
				}
			]
		},
		{
			"name":"Cylinder.003",
			"primitives":[
				{
					"attributes":{
						"POSITION":31,
						"NORMAL":32,
						"TEXCOORD_0":33
					},
					"indices":16,
					"material":3
				},
				{
					"attributes":{
						"POSITION":34,
						"NORMAL":35,
						"TEXCOORD_0":36
					},
					"indices":20,
					"material":4
				}
			]
		},
		{
			"name":"Cube.004",
			"primitives":[
				{
					"attributes":{
						"POSITION":37,
						"NORMAL":38,
						"TEXCOORD_0":39,
						"TANGENT":40
					},
					"indices":8,
					"material":1
				}
			]
		}
	],
	"accessors":[
		{
			"bufferView":0,
			"componentType":5126,
			"count":56,
			"max":[
				1,
				2,
				2.2886221408843994
			],
			"min":[
				-1,
				0,
				-2.2886221408843994
			],
			"type":"VEC3"
		},
		{
			"bufferView":1,
			"componentType":5126,
			"count":56,
			"type":"VEC3"
		},
		{
			"bufferView":2,
			"componentType":5126,
			"count":56,
			"type":"VEC2"
		},
		{
			"bufferView":3,
			"componentType":5123,
			"count":102,
			"type":"SCALAR"
		},
		{
			"bufferView":4,
			"componentType":5126,
			"count":48,
			"max":[
				1,
				2,
				2.2886221408843994
			],
			"min":[
				-1,
				0,
				-2.2886221408843994
			],
			"type":"VEC3"
		},
		{
			"bufferView":5,
			"componentType":5126,
			"count":48,
			"type":"VEC3"
		},
		{
			"bufferView":6,
			"componentType":5126,
			"count":48,
			"type":"VEC2"
		},
		{
			"bufferView":7,
			"componentType":5126,
			"count":48,
			"type":"VEC4"
		},
		{
			"bufferView":8,
			"componentType":5123,
			"count":84,
			"type":"SCALAR"
		},
		{
			"bufferView":9,
			"componentType":5126,
			"count":80,
			"max":[
				1.5580101013183594,
				1.2887001037597656,
				1.5580105781555176
			],
			"min":[
				-1.5580103397369385,
				-0.00031006429344415665,
				-1.5580098628997803
			],
			"type":"VEC3"
		},
		{
			"bufferView":10,
			"componentType":5126,
			"count":80,
			"type":"VEC3"
		},
		{
			"bufferView":11,
			"componentType":5126,
			"count":80,
			"type":"VEC2"
		},
		{
			"bufferView":12,
			"componentType":5123,
			"count":132,
			"type":"SCALAR"
		},
		{
			"bufferView":13,
			"componentType":5126,
			"count":448,
			"max":[
				1.4128282070159912,
				13.978275299072266,
				1.4128278493881226
			],
			"min":[
				-1.4128282070159912,
				0,
				-1.4128284454345703
			],
			"type":"VEC3"
		},
		{
			"bufferView":14,
			"componentType":5126,
			"count":448,
			"type":"VEC3"
		},
		{
			"bufferView":15,
			"componentType":5126,
			"count":448,
			"type":"VEC2"
		},
		{
			"bufferView":16,
			"componentType":5123,
			"count":756,
			"type":"SCALAR"
		},
		{
			"bufferView":17,
			"componentType":5126,
			"count":256,
			"max":[
				1.3214695453643799,
				13.320087432861328,
				1.3214693069458008
			],
			"min":[
				-1.3214695453643799,
				2.819491386413574,
				-1.321469783782959
			],
			"type":"VEC3"
		},
		{
			"bufferView":18,
			"componentType":5126,
			"count":256,
			"type":"VEC3"
		},
		{
			"bufferView":19,
			"componentType":5126,
			"count":256,
			"type":"VEC2"
		},
		{
			"bufferView":20,
			"componentType":5123,
			"count":384,
			"type":"SCALAR"
		},
		{
			"bufferView":21,
			"componentType":5126,
			"count":80,
			"max":[
				1.5580101013183594,
				1.2887001037597656,
				1.5580105781555176
			],
			"min":[
				-1.5580103397369385,
				-0.00031006429344415665,
				-1.5580098628997803
			],
			"type":"VEC3"
		},
		{
			"bufferView":22,
			"componentType":5126,
			"count":80,
			"type":"VEC3"
		},
		{
			"bufferView":23,
			"componentType":5126,
			"count":80,
			"type":"VEC2"
		},
		{
			"bufferView":24,
			"componentType":5126,
			"count":56,
			"max":[
				1,
				2,
				2.2886221408843994
			],
			"min":[
				-1,
				0,
				-2.2886221408843994
			],
			"type":"VEC3"
		},
		{
			"bufferView":25,
			"componentType":5126,
			"count":56,
			"type":"VEC3"
		},
		{
			"bufferView":26,
			"componentType":5126,
			"count":56,
			"type":"VEC2"
		},
		{
			"bufferView":27,
			"componentType":5126,
			"count":48,
			"max":[
				1,
				2,
				2.2886221408843994
			],
			"min":[
				-1,
				0,
				-2.2886221408843994
			],
			"type":"VEC3"
		},
		{
			"bufferView":28,
			"componentType":5126,
			"count":48,
			"type":"VEC3"
		},
		{
			"bufferView":29,
			"componentType":5126,
			"count":48,
			"type":"VEC2"
		},
		{
			"bufferView":30,
			"componentType":5126,
			"count":48,
			"type":"VEC4"
		},
		{
			"bufferView":31,
			"componentType":5126,
			"count":448,
			"max":[
				1.4128282070159912,
				13.978275299072266,
				1.4128278493881226
			],
			"min":[
				-1.4128282070159912,
				0,
				-1.4128284454345703
			],
			"type":"VEC3"
		},
		{
			"bufferView":32,
			"componentType":5126,
			"count":448,
			"type":"VEC3"
		},
		{
			"bufferView":33,
			"componentType":5126,
			"count":448,
			"type":"VEC2"
		},
		{
			"bufferView":34,
			"componentType":5126,
			"count":256,
			"max":[
				1.3214695453643799,
				13.320087432861328,
				1.3214693069458008
			],
			"min":[
				-1.3214695453643799,
				2.819491386413574,
				-1.321469783782959
			],
			"type":"VEC3"
		},
		{
			"bufferView":35,
			"componentType":5126,
			"count":256,
			"type":"VEC3"
		},
		{
			"bufferView":36,
			"componentType":5126,
			"count":256,
			"type":"VEC2"
		},
		{
			"bufferView":37,
			"componentType":5126,
			"count":48,
			"max":[
				1,
				2,
				2.2886221408843994
			],
			"min":[
				-1,
				0,
				-2.2886221408843994
			],
			"type":"VEC3"
		},
		{
			"bufferView":38,
			"componentType":5126,
			"count":48,
			"type":"VEC3"
		},
		{
			"bufferView":39,
			"componentType":5126,
			"count":48,
			"type":"VEC2"
		},
		{
			"bufferView":40,
			"componentType":5126,
			"count":48,
			"type":"VEC4"
		}
	],
	"bufferViews":[
		{
			"buffer":0,
			"byteLength":672,
			"byteOffset":0,
			"target":34962
		},
		{
			"buffer":0,
			"byteLength":672,
			"byteOffset":672,
			"target":34962
		},
		{
			"buffer":0,
			"byteLength":448,
			"byteOffset":1344,
			"target":34962
		},
		{
			"buffer":0,
			"byteLength":204,
			"byteOffset":1792,
			"target":34963
		},
		{
			"buffer":0,
			"byteLength":576,
			"byteOffset":1996,
			"target":34962
		},
		{
			"buffer":0,
			"byteLength":576,
			"byteOffset":2572,
			"target":34962
		},
		{
			"buffer":0,
			"byteLength":384,
			"byteOffset":3148,
			"target":34962
		},
		{
			"buffer":0,
			"byteLength":768,
			"byteOffset":3532,
			"target":34962
		},
		{
			"buffer":0,
			"byteLength":168,
			"byteOffset":4300,
			"target":34963
		},
		{
			"buffer":0,
			"byteLength":960,
			"byteOffset":4468,
			"target":34962
		},
		{
			"buffer":0,
			"byteLength":960,
			"byteOffset":5428,
			"target":34962
		},
		{
			"buffer":0,
			"byteLength":640,
			"byteOffset":6388,
			"target":34962
		},
		{
			"buffer":0,
			"byteLength":264,
			"byteOffset":7028,
			"target":34963
		},
		{
			"buffer":0,
			"byteLength":5376,
			"byteOffset":7292,
			"target":34962
		},
		{
			"buffer":0,
			"byteLength":5376,
			"byteOffset":12668,
			"target":34962
		},
		{
			"buffer":0,
			"byteLength":3584,
			"byteOffset":18044,
			"target":34962
		},
		{
			"buffer":0,
			"byteLength":1512,
			"byteOffset":21628,
			"target":34963
		},
		{
			"buffer":0,
			"byteLength":3072,
			"byteOffset":23140,
			"target":34962
		},
		{
			"buffer":0,
			"byteLength":3072,
			"byteOffset":26212,
			"target":34962
		},
		{
			"buffer":0,
			"byteLength":2048,
			"byteOffset":29284,
			"target":34962
		},
		{
			"buffer":0,
			"byteLength":768,
			"byteOffset":31332,
			"target":34963
		},
		{
			"buffer":0,
			"byteLength":960,
			"byteOffset":32100,
			"target":34962
		},
		{
			"buffer":0,
			"byteLength":960,
			"byteOffset":33060,
			"target":34962
		},
		{
			"buffer":0,
			"byteLength":640,
			"byteOffset":34020,
			"target":34962
		},
		{
			"buffer":0,
			"byteLength":672,
			"byteOffset":34660,
			"target":34962
		},
		{
			"buffer":0,
			"byteLength":672,
			"byteOffset":35332,
			"target":34962
		},
		{
			"buffer":0,
			"byteLength":448,
			"byteOffset":36004,
			"target":34962
		},
		{
			"buffer":0,
			"byteLength":576,
			"byteOffset":36452,
			"target":34962
		},
		{
			"buffer":0,
			"byteLength":576,
			"byteOffset":37028,
			"target":34962
		},
		{
			"buffer":0,
			"byteLength":384,
			"byteOffset":37604,
			"target":34962
		},
		{
			"buffer":0,
			"byteLength":768,
			"byteOffset":37988,
			"target":34962
		},
		{
			"buffer":0,
			"byteLength":5376,
			"byteOffset":38756,
			"target":34962
		},
		{
			"buffer":0,
			"byteLength":5376,
			"byteOffset":44132,
			"target":34962
		},
		{
			"buffer":0,
			"byteLength":3584,
			"byteOffset":49508,
			"target":34962
		},
		{
			"buffer":0,
			"byteLength":3072,
			"byteOffset":53092,
			"target":34962
		},
		{
			"buffer":0,
			"byteLength":3072,
			"byteOffset":56164,
			"target":34962
		},
		{
			"buffer":0,
			"byteLength":2048,
			"byteOffset":59236,
			"target":34962
		},
		{
			"buffer":0,
			"byteLength":576,
			"byteOffset":61284,
			"target":34962
		},
		{
			"buffer":0,
			"byteLength":576,
			"byteOffset":61860,
			"target":34962
		},
		{
			"buffer":0,
			"byteLength":384,
			"byteOffset":62436,
			"target":34962
		},
		{
			"buffer":0,
			"byteLength":768,
			"byteOffset":62820,
			"target":34962
		}
	],
	"buffers":[
		{
			"byteLength":63588,
			"uri":"CoalPowerPlant-5a61c03dee76d36b18651771a4f4a9af.bin"
		}
	]
}
