{
	"asset":{
		"generator":"Khronos glTF Blender I/O v4.1.63",
		"version":"2.0"
	},
	"scene":0,
	"scenes":[
		{
			"name":"Scene",
			"nodes":[
				0,
				1,
				2,
				3,
				4,
				5
			]
		}
	],
	"nodes":[
		{
			"mesh":0,
			"name":"Cylinder",
			"translation":[
				2,
				0,
				2
			]
		},
		{
			"mesh":0,
			"name":"Cylinder.001",
			"translation":[
				2,
				0,
				-2.293241024017334
			]
		},
		{
			"mesh":1,
			"name":"Cylinder.002",
			"translation":[
				-2.0342588424682617,
				0,
				-2.174776554107666
			]
		},
		{
			"mesh":2,
			"name":"Cylinder.003",
			"scale":[
				0.24767616391181946,
				4.237094879150391,
				0.24767616391181946
			],
			"translation":[
				4.514949321746826,
				0,
				-3.0039167404174805
			]
		},
		{
			"mesh":2,
			"name":"Cylinder.004",
			"scale":[
				0.24767616391181946,
				4.237094879150391,
				0.24767616391181946
			],
			"translation":[
				4.514949321746826,
				0,
				0.9960832595825195
			]
		},
		{
			"mesh":3,
			"name":"Cube.001",
			"translation":[
				-2,
				0,
				2
			]
		}
	],
	"materials":[
		{
			"doubleSided":true,
			"name":"Tale",
			"pbrMetallicRoughness":{
				"baseColorFactor":[
					0.3025323152542114,
					0.2761082649230957,
					0.28269368410110474,
					1
				]
			}
		},
		{
			"doubleSided":true,
			"name":"Material.001",
			"pbrMetallicRoughness":{
				"baseColorFactor":[
					0.540123701095581,
					0,
					0.0005460554966703057,
					1
				]
			}
		},
		{
			"doubleSided":true,
			"name":"Storage",
			"pbrMetallicRoughness":{
				"baseColorFactor":[
					0.5576533079147339,
					0.5576533079147339,
					0.5576533079147339,
					1
				]
			}
		},
		{
			"doubleSided":true,
			"name":"tower",
			"pbrMetallicRoughness":{
				"baseColorFactor":[
					0.5133559107780457,
					0.5056747198104858,
					0.5461317896842957,
					1
				]
			}
		},
		{
			"doubleSided":true,
			"name":"Material.002",
			"pbrMetallicRoughness":{
				"baseColorFactor":[
					0.5133559107780457,
					0.5056747198104858,
					0.5461317896842957,
					1
				]
			}
		}
	],
	"meshes":[
		{
			"name":"Cylinder.007",
			"primitives":[
				{
					"attributes":{
						"POSITION":0,
						"NORMAL":1,
						"TEXCOORD_0":2
					},
					"indices":3,
					"material":0
				},
				{
					"attributes":{
						"POSITION":4,
						"NORMAL":5,
						"TEXCOORD_0":6
					},
					"indices":7,
					"material":1
				}
			]
		},
		{
			"name":"Cylinder.008",
			"primitives":[
				{
					"attributes":{
						"POSITION":8,
						"NORMAL":9,
						"TEXCOORD_0":10
					},
					"indices":11,
					"material":2
				},
				{
					"attributes":{
						"POSITION":12,
						"NORMAL":13,
						"TEXCOORD_0":14
					},
					"indices":15,
					"material":1
				}
			]
		},
		{
			"name":"Cylinder.009",
			"primitives":[
				{
					"attributes":{
						"POSITION":16,
						"NORMAL":17,
						"TEXCOORD_0":18
					},
					"indices":19,
					"material":3
				},
				{
					"attributes":{
						"POSITION":20,
						"NORMAL":21,
						"TEXCOORD_0":22
					},
					"indices":23,
					"material":1
				}
			]
		},
		{
			"name":"Cube.006",
			"primitives":[
				{
					"attributes":{
						"POSITION":24,
						"NORMAL":25,
						"TEXCOORD_0":26,
						"TANGENT":27
					},
					"indices":28,
					"material":4
				}
			]
		}
	],
	"accessors":[
		{
			"bufferView":0,
			"componentType":5126,
			"count":384,
			"max":[
				2.068568706512451,
				4,
				2.068568706512451
			],
			"min":[
				-2.068568706512451,
				0,
				-2.068568706512451
			],
			"type":"VEC3"
		},
		{
			"bufferView":1,
			"componentType":5126,
			"count":384,
			"type":"VEC3"
		},
		{
			"bufferView":2,
			"componentType":5126,
			"count":384,
			"type":"VEC2"
		},
		{
			"bufferView":3,
			"componentType":5123,
			"count":660,
			"type":"SCALAR"
		},
		{
			"bufferView":4,
			"componentType":5126,
			"count":128,
			"max":[
				1.2904374599456787,
				3.4260826110839844,
				1.2904374599456787
			],
			"min":[
				-1.2904374599456787,
				2.4415242671966553,
				-1.2904373407363892
			],
			"type":"VEC3"
		},
		{
			"bufferView":5,
			"componentType":5126,
			"count":128,
			"type":"VEC3"
		},
		{
			"bufferView":6,
			"componentType":5126,
			"count":128,
			"type":"VEC2"
		},
		{
			"bufferView":7,
			"componentType":5123,
			"count":192,
			"type":"SCALAR"
		},
		{
			"bufferView":8,
			"componentType":5126,
			"count":336,
			"max":[
				1.6882787942886353,
				2.255352258682251,
				1.6882787942886353
			],
			"min":[
				-1.6882787942886353,
				0,
				-1.6882787942886353
			],
			"type":"VEC3"
		},
		{
			"bufferView":9,
			"componentType":5126,
			"count":336,
			"type":"VEC3"
		},
		{
			"bufferView":10,
			"componentType":5126,
			"count":336,
			"type":"VEC2"
		},
		{
			"bufferView":11,
			"componentType":5123,
			"count":606,
			"type":"SCALAR"
		},
		{
			"bufferView":12,
			"componentType":5126,
			"count":64,
			"max":[
				1.6882787942886353,
				1.9561396837234497,
				1.6882787942886353
			],
			"min":[
				-1.6882787942886353,
				1.745939016342163,
				-1.6882787942886353
			],
			"type":"VEC3"
		},
		{
			"bufferView":13,
			"componentType":5126,
			"count":64,
			"type":"VEC3"
		},
		{
			"bufferView":14,
			"componentType":5126,
			"count":64,
			"type":"VEC2"
		},
		{
			"bufferView":15,
			"componentType":5123,
			"count":96,
			"type":"SCALAR"
		},
		{
			"bufferView":16,
			"componentType":5126,
			"count":480,
			"max":[
				1,
				2,
				1
			],
			"min":[
				-1,
				0,
				-1
			],
			"type":"VEC3"
		},
		{
			"bufferView":17,
			"componentType":5126,
			"count":480,
			"type":"VEC3"
		},
		{
			"bufferView":18,
			"componentType":5126,
			"count":480,
			"type":"VEC2"
		},
		{
			"bufferView":19,
			"componentType":5123,
			"count":756,
			"type":"SCALAR"
		},
		{
			"bufferView":20,
			"componentType":5126,
			"count":384,
			"max":[
				1,
				1.7319978475570679,
				1
			],
			"min":[
				-1,
				0.2680021822452545,
				-1
			],
			"type":"VEC3"
		},
		{
			"bufferView":21,
			"componentType":5126,
			"count":384,
			"type":"VEC3"
		},
		{
			"bufferView":22,
			"componentType":5126,
			"count":384,
			"type":"VEC2"
		},
		{
			"bufferView":23,
			"componentType":5123,
			"count":576,
			"type":"SCALAR"
		},
		{
			"bufferView":24,
			"componentType":5126,
			"count":48,
			"max":[
				1,
				1.7595139741897583,
				1.5771739482879639
			],
			"min":[
				-1,
				0,
				-1.5771739482879639
			],
			"type":"VEC3"
		},
		{
			"bufferView":25,
			"componentType":5126,
			"count":48,
			"type":"VEC3"
		},
		{
			"bufferView":26,
			"componentType":5126,
			"count":48,
			"type":"VEC2"
		},
		{
			"bufferView":27,
			"componentType":5126,
			"count":48,
			"type":"VEC4"
		},
		{
			"bufferView":28,
			"componentType":5123,
			"count":84,
			"type":"SCALAR"
		}
	],
	"bufferViews":[
		{
			"buffer":0,
			"byteLength":4608,
			"byteOffset":0,
			"target":34962
		},
		{
			"buffer":0,
			"byteLength":4608,
			"byteOffset":4608,
			"target":34962
		},
		{
			"buffer":0,
			"byteLength":3072,
			"byteOffset":9216,
			"target":34962
		},
		{
			"buffer":0,
			"byteLength":1320,
			"byteOffset":12288,
			"target":34963
		},
		{
			"buffer":0,
			"byteLength":1536,
			"byteOffset":13608,
			"target":34962
		},
		{
			"buffer":0,
			"byteLength":1536,
			"byteOffset":15144,
			"target":34962
		},
		{
			"buffer":0,
			"byteLength":1024,
			"byteOffset":16680,
			"target":34962
		},
		{
			"buffer":0,
			"byteLength":384,
			"byteOffset":17704,
			"target":34963
		},
		{
			"buffer":0,
			"byteLength":4032,
			"byteOffset":18088,
			"target":34962
		},
		{
			"buffer":0,
			"byteLength":4032,
			"byteOffset":22120,
			"target":34962
		},
		{
			"buffer":0,
			"byteLength":2688,
			"byteOffset":26152,
			"target":34962
		},
		{
			"buffer":0,
			"byteLength":1212,
			"byteOffset":28840,
			"target":34963
		},
		{
			"buffer":0,
			"byteLength":768,
			"byteOffset":30052,
			"target":34962
		},
		{
			"buffer":0,
			"byteLength":768,
			"byteOffset":30820,
			"target":34962
		},
		{
			"buffer":0,
			"byteLength":512,
			"byteOffset":31588,
			"target":34962
		},
		{
			"buffer":0,
			"byteLength":192,
			"byteOffset":32100,
			"target":34963
		},
		{
			"buffer":0,
			"byteLength":5760,
			"byteOffset":32292,
			"target":34962
		},
		{
			"buffer":0,
			"byteLength":5760,
			"byteOffset":38052,
			"target":34962
		},
		{
			"buffer":0,
			"byteLength":3840,
			"byteOffset":43812,
			"target":34962
		},
		{
			"buffer":0,
			"byteLength":1512,
			"byteOffset":47652,
			"target":34963
		},
		{
			"buffer":0,
			"byteLength":4608,
			"byteOffset":49164,
			"target":34962
		},
		{
			"buffer":0,
			"byteLength":4608,
			"byteOffset":53772,
			"target":34962
		},
		{
			"buffer":0,
			"byteLength":3072,
			"byteOffset":58380,
			"target":34962
		},
		{
			"buffer":0,
			"byteLength":1152,
			"byteOffset":61452,
			"target":34963
		},
		{
			"buffer":0,
			"byteLength":576,
			"byteOffset":62604,
			"target":34962
		},
		{
			"buffer":0,
			"byteLength":576,
			"byteOffset":63180,
			"target":34962
		},
		{
			"buffer":0,
			"byteLength":384,
			"byteOffset":63756,
			"target":34962
		},
		{
			"buffer":0,
			"byteLength":768,
			"byteOffset":64140,
			"target":34962
		},
		{
			"buffer":0,
			"byteLength":168,
			"byteOffset":64908,
			"target":34963
		}
	],
	"buffers":[
		{
			"byteLength":65076,
			"uri":"Nuclear-0bee291f2700145850de7799fe450601.bin"
		}
	]
}
