{
	"asset":{
		"generator":"Khronos glTF Blender I/O v4.1.62",
		"version":"2.0"
	},
	"scene":0,
	"scenes":[
		{
			"name":"Scene",
			"nodes":[
				0,
				1,
				2,
				3
			]
		}
	],
	"nodes":[
		{
			"mesh":0,
			"name":"Cube.002",
			"rotation":[
				0.06677981466054916,
				-0.7039463520050049,
				0.06677981466054916,
				0.7039464116096497
			],
			"scale":[
				1.9288218021392822,
				1.0321580171585083,
				1.8468971252441406
			],
			"translation":[
				-2.162836790084839,
				0.8724647760391235,
				-2.1633996963500977
			]
		},
		{
			"mesh":1,
			"name":"Cube.001",
			"rotation":[
				0.06677981466054916,
				-0.7039463520050049,
				0.06677981466054916,
				0.7039464116096497
			],
			"scale":[
				1.9288218021392822,
				1.0321580171585083,
				1.8468971252441406
			],
			"translation":[
				-2.162836790084839,
				0.8724647760391235,
				2.1840875148773193
			]
		},
		{
			"mesh":2,
			"name":"Cube.003",
			"rotation":[
				0.06677981466054916,
				-0.7039463520050049,
				0.06677981466054916,
				0.7039464116096497
			],
			"scale":[
				1.9288218021392822,
				1.0321580171585083,
				1.8468971252441406
			],
			"translation":[
				2.184650182723999,
				0.8724647760391235,
				-2.1633996963500977
			]
		},
		{
			"mesh":3,
			"name":"Cube.004",
			"rotation":[
				0.06677981466054916,
				-0.7039463520050049,
				0.06677981466054916,
				0.7039464116096497
			],
			"scale":[
				1.9288218021392822,
				1.0321580171585083,
				1.8468971252441406
			],
			"translation":[
				2.184650182723999,
				0.8724647760391235,
				2.1840875148773193
			]
		}
	],
	"materials":[
		{
			"doubleSided":true,
			"name":"SPanel",
			"pbrMetallicRoughness":{
				"metallicFactor":0
			}
		},
		{
			"doubleSided":true,
			"name":"blue",
			"pbrMetallicRoughness":{
				"baseColorFactor":[
					0.0005148818017914891,
					0,
					0.16190771758556366,
					1
				]
			}
		}
	],
	"meshes":[
		{
			"name":"Cube.020",
			"primitives":[
				{
					"attributes":{
						"POSITION":0,
						"NORMAL":1,
						"TEXCOORD_0":2,
						"TANGENT":3
					},
					"indices":4,
					"material":0
				},
				{
					"attributes":{
						"POSITION":5,
						"NORMAL":6,
						"TEXCOORD_0":7,
						"TANGENT":8
					},
					"indices":9,
					"material":1
				}
			]
		},
		{
			"name":"Cube.029",
			"primitives":[
				{
					"attributes":{
						"POSITION":10,
						"NORMAL":11,
						"TEXCOORD_0":12,
						"TANGENT":13
					},
					"indices":4,
					"material":0
				},
				{
					"attributes":{
						"POSITION":14,
						"NORMAL":15,
						"TEXCOORD_0":16,
						"TANGENT":17
					},
					"indices":9,
					"material":1
				}
			]
		},
		{
			"name":"Cube.030",
			"primitives":[
				{
					"attributes":{
						"POSITION":18,
						"NORMAL":19,
						"TEXCOORD_0":20,
						"TANGENT":21
					},
					"indices":4,
					"material":0
				},
				{
					"attributes":{
						"POSITION":22,
						"NORMAL":23,
						"TEXCOORD_0":24,
						"TANGENT":25
					},
					"indices":9,
					"material":1
				}
			]
		},
		{
			"name":"Cube.031",
			"primitives":[
				{
					"attributes":{
						"POSITION":26,
						"NORMAL":27,
						"TEXCOORD_0":28,
						"TANGENT":29
					},
					"indices":4,
					"material":0
				},
				{
					"attributes":{
						"POSITION":30,
						"NORMAL":31,
						"TEXCOORD_0":32,
						"TANGENT":33
					},
					"indices":9,
					"material":1
				}
			]
		}
	],
	"accessors":[
		{
			"bufferView":0,
			"componentType":5126,
			"count":172,
			"max":[
				1,
				0.053226351737976074,
				1
			],
			"min":[
				-1,
				-0.8689939379692078,
				-1
			],
			"type":"VEC3"
		},
		{
			"bufferView":1,
			"componentType":5126,
			"count":172,
			"type":"VEC3"
		},
		{
			"bufferView":2,
			"componentType":5126,
			"count":172,
			"type":"VEC2"
		},
		{
			"bufferView":3,
			"componentType":5126,
			"count":172,
			"type":"VEC4"
		},
		{
			"bufferView":4,
			"componentType":5123,
			"count":294,
			"type":"SCALAR"
		},
		{
			"bufferView":5,
			"componentType":5126,
			"count":4,
			"max":[
				0.9355682134628296,
				0.008415892720222473,
				0.9355682134628296
			],
			"min":[
				-0.9355682134628296,
				0.008415892720222473,
				-0.9355682134628296
			],
			"type":"VEC3"
		},
		{
			"bufferView":6,
			"componentType":5126,
			"count":4,
			"type":"VEC3"
		},
		{
			"bufferView":7,
			"componentType":5126,
			"count":4,
			"type":"VEC2"
		},
		{
			"bufferView":8,
			"componentType":5126,
			"count":4,
			"type":"VEC4"
		},
		{
			"bufferView":9,
			"componentType":5123,
			"count":6,
			"type":"SCALAR"
		},
		{
			"bufferView":10,
			"componentType":5126,
			"count":172,
			"max":[
				1,
				0.053226351737976074,
				1
			],
			"min":[
				-1,
				-0.8689939379692078,
				-1
			],
			"type":"VEC3"
		},
		{
			"bufferView":11,
			"componentType":5126,
			"count":172,
			"type":"VEC3"
		},
		{
			"bufferView":12,
			"componentType":5126,
			"count":172,
			"type":"VEC2"
		},
		{
			"bufferView":13,
			"componentType":5126,
			"count":172,
			"type":"VEC4"
		},
		{
			"bufferView":14,
			"componentType":5126,
			"count":4,
			"max":[
				0.9355682134628296,
				0.008415892720222473,
				0.9355682134628296
			],
			"min":[
				-0.9355682134628296,
				0.008415892720222473,
				-0.9355682134628296
			],
			"type":"VEC3"
		},
		{
			"bufferView":15,
			"componentType":5126,
			"count":4,
			"type":"VEC3"
		},
		{
			"bufferView":16,
			"componentType":5126,
			"count":4,
			"type":"VEC2"
		},
		{
			"bufferView":17,
			"componentType":5126,
			"count":4,
			"type":"VEC4"
		},
		{
			"bufferView":18,
			"componentType":5126,
			"count":172,
			"max":[
				1,
				0.053226351737976074,
				1
			],
			"min":[
				-1,
				-0.8689939379692078,
				-1
			],
			"type":"VEC3"
		},
		{
			"bufferView":19,
			"componentType":5126,
			"count":172,
			"type":"VEC3"
		},
		{
			"bufferView":20,
			"componentType":5126,
			"count":172,
			"type":"VEC2"
		},
		{
			"bufferView":21,
			"componentType":5126,
			"count":172,
			"type":"VEC4"
		},
		{
			"bufferView":22,
			"componentType":5126,
			"count":4,
			"max":[
				0.9355682134628296,
				0.008415892720222473,
				0.9355682134628296
			],
			"min":[
				-0.9355682134628296,
				0.008415892720222473,
				-0.9355682134628296
			],
			"type":"VEC3"
		},
		{
			"bufferView":23,
			"componentType":5126,
			"count":4,
			"type":"VEC3"
		},
		{
			"bufferView":24,
			"componentType":5126,
			"count":4,
			"type":"VEC2"
		},
		{
			"bufferView":25,
			"componentType":5126,
			"count":4,
			"type":"VEC4"
		},
		{
			"bufferView":26,
			"componentType":5126,
			"count":172,
			"max":[
				1,
				0.053226351737976074,
				1
			],
			"min":[
				-1,
				-0.8689939379692078,
				-1
			],
			"type":"VEC3"
		},
		{
			"bufferView":27,
			"componentType":5126,
			"count":172,
			"type":"VEC3"
		},
		{
			"bufferView":28,
			"componentType":5126,
			"count":172,
			"type":"VEC2"
		},
		{
			"bufferView":29,
			"componentType":5126,
			"count":172,
			"type":"VEC4"
		},
		{
			"bufferView":30,
			"componentType":5126,
			"count":4,
			"max":[
				0.9355682134628296,
				0.008415892720222473,
				0.9355682134628296
			],
			"min":[
				-0.9355682134628296,
				0.008415892720222473,
				-0.9355682134628296
			],
			"type":"VEC3"
		},
		{
			"bufferView":31,
			"componentType":5126,
			"count":4,
			"type":"VEC3"
		},
		{
			"bufferView":32,
			"componentType":5126,
			"count":4,
			"type":"VEC2"
		},
		{
			"bufferView":33,
			"componentType":5126,
			"count":4,
			"type":"VEC4"
		}
	],
	"bufferViews":[
		{
			"buffer":0,
			"byteLength":2064,
			"byteOffset":0,
			"target":34962
		},
		{
			"buffer":0,
			"byteLength":2064,
			"byteOffset":2064,
			"target":34962
		},
		{
			"buffer":0,
			"byteLength":1376,
			"byteOffset":4128,
			"target":34962
		},
		{
			"buffer":0,
			"byteLength":2752,
			"byteOffset":5504,
			"target":34962
		},
		{
			"buffer":0,
			"byteLength":588,
			"byteOffset":8256,
			"target":34963
		},
		{
			"buffer":0,
			"byteLength":48,
			"byteOffset":8844,
			"target":34962
		},
		{
			"buffer":0,
			"byteLength":48,
			"byteOffset":8892,
			"target":34962
		},
		{
			"buffer":0,
			"byteLength":32,
			"byteOffset":8940,
			"target":34962
		},
		{
			"buffer":0,
			"byteLength":64,
			"byteOffset":8972,
			"target":34962
		},
		{
			"buffer":0,
			"byteLength":12,
			"byteOffset":9036,
			"target":34963
		},
		{
			"buffer":0,
			"byteLength":2064,
			"byteOffset":9048,
			"target":34962
		},
		{
			"buffer":0,
			"byteLength":2064,
			"byteOffset":11112,
			"target":34962
		},
		{
			"buffer":0,
			"byteLength":1376,
			"byteOffset":13176,
			"target":34962
		},
		{
			"buffer":0,
			"byteLength":2752,
			"byteOffset":14552,
			"target":34962
		},
		{
			"buffer":0,
			"byteLength":48,
			"byteOffset":17304,
			"target":34962
		},
		{
			"buffer":0,
			"byteLength":48,
			"byteOffset":17352,
			"target":34962
		},
		{
			"buffer":0,
			"byteLength":32,
			"byteOffset":17400,
			"target":34962
		},
		{
			"buffer":0,
			"byteLength":64,
			"byteOffset":17432,
			"target":34962
		},
		{
			"buffer":0,
			"byteLength":2064,
			"byteOffset":17496,
			"target":34962
		},
		{
			"buffer":0,
			"byteLength":2064,
			"byteOffset":19560,
			"target":34962
		},
		{
			"buffer":0,
			"byteLength":1376,
			"byteOffset":21624,
			"target":34962
		},
		{
			"buffer":0,
			"byteLength":2752,
			"byteOffset":23000,
			"target":34962
		},
		{
			"buffer":0,
			"byteLength":48,
			"byteOffset":25752,
			"target":34962
		},
		{
			"buffer":0,
			"byteLength":48,
			"byteOffset":25800,
			"target":34962
		},
		{
			"buffer":0,
			"byteLength":32,
			"byteOffset":25848,
			"target":34962
		},
		{
			"buffer":0,
			"byteLength":64,
			"byteOffset":25880,
			"target":34962
		},
		{
			"buffer":0,
			"byteLength":2064,
			"byteOffset":25944,
			"target":34962
		},
		{
			"buffer":0,
			"byteLength":2064,
			"byteOffset":28008,
			"target":34962
		},
		{
			"buffer":0,
			"byteLength":1376,
			"byteOffset":30072,
			"target":34962
		},
		{
			"buffer":0,
			"byteLength":2752,
			"byteOffset":31448,
			"target":34962
		},
		{
			"buffer":0,
			"byteLength":48,
			"byteOffset":34200,
			"target":34962
		},
		{
			"buffer":0,
			"byteLength":48,
			"byteOffset":34248,
			"target":34962
		},
		{
			"buffer":0,
			"byteLength":32,
			"byteOffset":34296,
			"target":34962
		},
		{
			"buffer":0,
			"byteLength":64,
			"byteOffset":34328,
			"target":34962
		}
	],
	"buffers":[
		{
			"byteLength":34392,
			"uri":"SolarPanels-96be975c42830c29efa01a32811027cd.bin"
		}
	]
}
