{
	"asset":{
		"generator":"Khronos glTF Blender I/O v4.1.62",
		"version":"2.0"
	},
	"scene":0,
	"scenes":[
		{
			"name":"Scene",
			"nodes":[
				0,
				1,
				2,
				3,
				4,
				5,
				6,
				7,
				8,
				9,
				10,
				11,
				12,
				13,
				14
			]
		}
	],
	"nodes":[
		{
			"mesh":0,
			"name":"Plane",
			"scale":[
				5,
				5,
				5
			]
		},
		{
			"mesh":1,
			"name":"Cylinder.001",
			"rotation":[
				0.7071068286895752,
				0,
				0,
				0.7071068286895752
			],
			"scale":[
				0.20972445607185364,
				0.20972445607185364,
				0.20972445607185364
			],
			"translation":[
				-4.137426853179932,
				0.7136450409889221,
				3.239575147628784
			]
		},
		{
			"mesh":1,
			"name":"Cylinder.002",
			"rotation":[
				0.7071068286895752,
				0,
				0,
				0.7071068286895752
			],
			"scale":[
				0.20972445607185364,
				0.20972445607185364,
				0.20972445607185364
			],
			"translation":[
				-3.503800392150879,
				0.7136450409889221,
				3.239575147628784
			]
		},
		{
			"mesh":1,
			"name":"Cylinder.003",
			"rotation":[
				0.7071068286895752,
				0,
				0,
				0.7071068286895752
			],
			"scale":[
				0.20972445607185364,
				0.20972445607185364,
				0.20972445607185364
			],
			"translation":[
				-2.8701748847961426,
				0.7136450409889221,
				3.239575147628784
			]
		},
		{
			"mesh":1,
			"name":"Cylinder.004",
			"rotation":[
				0.7071068286895752,
				0,
				0,
				0.7071068286895752
			],
			"scale":[
				0.20972445607185364,
				0.20972445607185364,
				0.20972445607185364
			],
			"translation":[
				-2.236548900604248,
				0.7136450409889221,
				3.239575147628784
			]
		},
		{
			"mesh":1,
			"name":"Cylinder.005",
			"rotation":[
				0.7071068286895752,
				0,
				0,
				0.7071068286895752
			],
			"scale":[
				0.20972445607185364,
				0.20972445607185364,
				0.20972445607185364
			],
			"translation":[
				-1.6029232740402222,
				0.7136450409889221,
				3.239575147628784
			]
		},
		{
			"mesh":1,
			"name":"Cylinder.006",
			"rotation":[
				0.7071068286895752,
				0,
				0,
				0.7071068286895752
			],
			"scale":[
				0.20972445607185364,
				0.20972445607185364,
				0.20972445607185364
			],
			"translation":[
				-0.9692975282669067,
				0.7136450409889221,
				3.239575147628784
			]
		},
		{
			"mesh":2,
			"name":"Cube",
			"scale":[
				1.7547401189804077,
				1.7547401189804077,
				1.7547401189804077
			],
			"translation":[
				-1.3368433713912964,
				0.0019037425518035889,
				-0.8027297258377075
			]
		},
		{
			"mesh":3,
			"name":"Cylinder",
			"scale":[
				0.6292610764503479,
				0.6292610764503479,
				0.6292610764503479
			],
			"translation":[
				-3.5308313369750977,
				0.0019037425518035889,
				-3.3377926349639893
			]
		},
		{
			"mesh":3,
			"name":"Cylinder.007",
			"scale":[
				0.6292610764503479,
				0.6292610764503479,
				0.6292610764503479
			],
			"translation":[
				-1.3220107555389404,
				0.0019037425518035889,
				-3.3377926349639893
			]
		},
		{
			"mesh":3,
			"name":"Cylinder.008",
			"scale":[
				0.6292610764503479,
				0.6292610764503479,
				0.6292610764503479
			],
			"translation":[
				0.8868097066879272,
				0.0019037425518035889,
				-3.3377926349639893
			]
		},
		{
			"mesh":4,
			"name":"Cylinder.009",
			"rotation":[
				0.5,
				0.5,
				-0.5,
				0.5
			],
			"scale":[
				0.3442907929420471,
				0.3442907929420471,
				0.3442907929420471
			],
			"translation":[
				3.172459602355957,
				0.7896741032600403,
				0.17202091217041016
			]
		},
		{
			"mesh":4,
			"name":"Cylinder.010",
			"rotation":[
				0.5,
				0.5,
				-0.5,
				0.5
			],
			"scale":[
				0.3442907929420471,
				0.3442907929420471,
				0.3442907929420471
			],
			"translation":[
				3.172459602355957,
				0.7896741032600403,
				-0.80579674243927
			]
		},
		{
			"mesh":4,
			"name":"Cylinder.011",
			"rotation":[
				0.5,
				0.5,
				-0.5,
				0.5
			],
			"scale":[
				0.3442907929420471,
				0.3442907929420471,
				0.3442907929420471
			],
			"translation":[
				3.172459602355957,
				0.7896741032600403,
				-1.7836143970489502
			]
		},
		{
			"mesh":5,
			"name":"Cube.001",
			"rotation":[
				0,
				0.7071068286895752,
				0,
				0.7071067690849304
			],
			"scale":[
				0.9648572206497192,
				0.9648572206497192,
				0.9648572206497192
			],
			"translation":[
				0.6694293022155762,
				0.0019037425518035889,
				2.5949268341064453
			]
		}
	],
	"materials":[
		{
			"doubleSided":true,
			"name":"SmallPipes",
			"pbrMetallicRoughness":{
				"baseColorFactor":[
					0.049678996205329895,
					0.04396333545446396,
					0.04696802794933319,
					1
				],
				"metallicFactor":0
			}
		},
		{
			"doubleSided":true,
			"name":"Buildings",
			"pbrMetallicRoughness":{
				"baseColorFactor":[
					0.4237391948699951,
					0.4237391948699951,
					0.4237391948699951,
					1
				],
				"metallicFactor":0
			}
		},
		{
			"doubleSided":true,
			"name":"PipesMain",
			"pbrMetallicRoughness":{
				"baseColorFactor":[
					0.48822087049484253,
					0.48822087049484253,
					0.48822087049484253,
					1
				],
				"metallicFactor":0
			}
		},
		{
			"doubleSided":true,
			"name":"Material.001",
			"pbrMetallicRoughness":{
				"baseColorFactor":[
					0,
					0.01365178544074297,
					0.558099627494812,
					1
				],
				"metallicFactor":0
			}
		},
		{
			"doubleSided":true,
			"name":"BigPipes",
			"pbrMetallicRoughness":{
				"baseColorFactor":[
					0.0008350192802026868,
					0.0017868082504719496,
					0.010466258972883224,
					1
				],
				"metallicFactor":0
			}
		}
	],
	"meshes":[
		{
			"name":"Plane",
			"primitives":[
				{
					"attributes":{
						"POSITION":0,
						"NORMAL":1,
						"TEXCOORD_0":2,
						"TANGENT":3
					},
					"indices":4
				}
			]
		},
		{
			"name":"Cylinder.008",
			"primitives":[
				{
					"attributes":{
						"POSITION":5,
						"NORMAL":6,
						"TEXCOORD_0":7
					},
					"indices":8,
					"material":0
				}
			]
		},
		{
			"name":"Cube.001",
			"primitives":[
				{
					"attributes":{
						"POSITION":9,
						"NORMAL":10,
						"TEXCOORD_0":11,
						"TANGENT":12
					},
					"indices":13,
					"material":1
				}
			]
		},
		{
			"name":"Cylinder.011",
			"primitives":[
				{
					"attributes":{
						"POSITION":14,
						"NORMAL":15,
						"TEXCOORD_0":16
					},
					"indices":17,
					"material":2
				},
				{
					"attributes":{
						"POSITION":18,
						"NORMAL":19,
						"TEXCOORD_0":20
					},
					"indices":21,
					"material":3
				}
			]
		},
		{
			"name":"Cylinder.014",
			"primitives":[
				{
					"attributes":{
						"POSITION":22,
						"NORMAL":23,
						"TEXCOORD_0":24
					},
					"indices":8,
					"material":4
				}
			]
		},
		{
			"name":"Cube.002",
			"primitives":[
				{
					"attributes":{
						"POSITION":25,
						"NORMAL":26,
						"TEXCOORD_0":27,
						"TANGENT":28
					},
					"indices":13,
					"material":1
				}
			]
		}
	],
	"accessors":[
		{
			"bufferView":0,
			"componentType":5126,
			"count":4,
			"max":[
				1,
				0,
				1
			],
			"min":[
				-1,
				0,
				-1
			],
			"type":"VEC3"
		},
		{
			"bufferView":1,
			"componentType":5126,
			"count":4,
			"type":"VEC3"
		},
		{
			"bufferView":2,
			"componentType":5126,
			"count":4,
			"type":"VEC2"
		},
		{
			"bufferView":3,
			"componentType":5126,
			"count":4,
			"type":"VEC4"
		},
		{
			"bufferView":4,
			"componentType":5123,
			"count":6,
			"type":"SCALAR"
		},
		{
			"bufferView":5,
			"componentType":5126,
			"count":208,
			"max":[
				1.000000238418579,
				4.893870830535889,
				3.3936970233917236
			],
			"min":[
				-1.000000238418579,
				-11.809168815612793,
				-1
			],
			"type":"VEC3"
		},
		{
			"bufferView":6,
			"componentType":5126,
			"count":208,
			"type":"VEC3"
		},
		{
			"bufferView":7,
			"componentType":5126,
			"count":208,
			"type":"VEC2"
		},
		{
			"bufferView":8,
			"componentType":5123,
			"count":324,
			"type":"SCALAR"
		},
		{
			"bufferView":9,
			"componentType":5126,
			"count":48,
			"max":[
				1.855108618736267,
				1.1301206350326538,
				0.9161775708198547
			],
			"min":[
				-1.855108618736267,
				0,
				-0.9161775708198547
			],
			"type":"VEC3"
		},
		{
			"bufferView":10,
			"componentType":5126,
			"count":48,
			"type":"VEC3"
		},
		{
			"bufferView":11,
			"componentType":5126,
			"count":48,
			"type":"VEC2"
		},
		{
			"bufferView":12,
			"componentType":5126,
			"count":48,
			"type":"VEC4"
		},
		{
			"bufferView":13,
			"componentType":5123,
			"count":84,
			"type":"SCALAR"
		},
		{
			"bufferView":14,
			"componentType":5126,
			"count":224,
			"max":[
				1.4334532022476196,
				8.279561996459961,
				1.433452844619751
			],
			"min":[
				-1.4334524869918823,
				0,
				-1.433452844619751
			],
			"type":"VEC3"
		},
		{
			"bufferView":15,
			"componentType":5126,
			"count":224,
			"type":"VEC3"
		},
		{
			"bufferView":16,
			"componentType":5126,
			"count":224,
			"type":"VEC2"
		},
		{
			"bufferView":17,
			"componentType":5123,
			"count":372,
			"type":"SCALAR"
		},
		{
			"bufferView":18,
			"componentType":5126,
			"count":128,
			"max":[
				1.376064658164978,
				7.130151748657227,
				1.3760648965835571
			],
			"min":[
				-1.3760651350021362,
				1.381144404411316,
				-1.3760648965835571
			],
			"type":"VEC3"
		},
		{
			"bufferView":19,
			"componentType":5126,
			"count":128,
			"type":"VEC3"
		},
		{
			"bufferView":20,
			"componentType":5126,
			"count":128,
			"type":"VEC2"
		},
		{
			"bufferView":21,
			"componentType":5123,
			"count":192,
			"type":"SCALAR"
		},
		{
			"bufferView":22,
			"componentType":5126,
			"count":208,
			"max":[
				1.000000238418579,
				4.8938703536987305,
				2.3015010356903076
			],
			"min":[
				-1.000000238418579,
				-3.7961792945861816,
				-1
			],
			"type":"VEC3"
		},
		{
			"bufferView":23,
			"componentType":5126,
			"count":208,
			"type":"VEC3"
		},
		{
			"bufferView":24,
			"componentType":5126,
			"count":208,
			"type":"VEC2"
		},
		{
			"bufferView":25,
			"componentType":5126,
			"count":48,
			"max":[
				1.855108618736267,
				1.1301206350326538,
				0.9161775708198547
			],
			"min":[
				-1.855108618736267,
				0,
				-0.9161775708198547
			],
			"type":"VEC3"
		},
		{
			"bufferView":26,
			"componentType":5126,
			"count":48,
			"type":"VEC3"
		},
		{
			"bufferView":27,
			"componentType":5126,
			"count":48,
			"type":"VEC2"
		},
		{
			"bufferView":28,
			"componentType":5126,
			"count":48,
			"type":"VEC4"
		}
	],
	"bufferViews":[
		{
			"buffer":0,
			"byteLength":48,
			"byteOffset":0,
			"target":34962
		},
		{
			"buffer":0,
			"byteLength":48,
			"byteOffset":48,
			"target":34962
		},
		{
			"buffer":0,
			"byteLength":32,
			"byteOffset":96,
			"target":34962
		},
		{
			"buffer":0,
			"byteLength":64,
			"byteOffset":128,
			"target":34962
		},
		{
			"buffer":0,
			"byteLength":12,
			"byteOffset":192,
			"target":34963
		},
		{
			"buffer":0,
			"byteLength":2496,
			"byteOffset":204,
			"target":34962
		},
		{
			"buffer":0,
			"byteLength":2496,
			"byteOffset":2700,
			"target":34962
		},
		{
			"buffer":0,
			"byteLength":1664,
			"byteOffset":5196,
			"target":34962
		},
		{
			"buffer":0,
			"byteLength":648,
			"byteOffset":6860,
			"target":34963
		},
		{
			"buffer":0,
			"byteLength":576,
			"byteOffset":7508,
			"target":34962
		},
		{
			"buffer":0,
			"byteLength":576,
			"byteOffset":8084,
			"target":34962
		},
		{
			"buffer":0,
			"byteLength":384,
			"byteOffset":8660,
			"target":34962
		},
		{
			"buffer":0,
			"byteLength":768,
			"byteOffset":9044,
			"target":34962
		},
		{
			"buffer":0,
			"byteLength":168,
			"byteOffset":9812,
			"target":34963
		},
		{
			"buffer":0,
			"byteLength":2688,
			"byteOffset":9980,
			"target":34962
		},
		{
			"buffer":0,
			"byteLength":2688,
			"byteOffset":12668,
			"target":34962
		},
		{
			"buffer":0,
			"byteLength":1792,
			"byteOffset":15356,
			"target":34962
		},
		{
			"buffer":0,
			"byteLength":744,
			"byteOffset":17148,
			"target":34963
		},
		{
			"buffer":0,
			"byteLength":1536,
			"byteOffset":17892,
			"target":34962
		},
		{
			"buffer":0,
			"byteLength":1536,
			"byteOffset":19428,
			"target":34962
		},
		{
			"buffer":0,
			"byteLength":1024,
			"byteOffset":20964,
			"target":34962
		},
		{
			"buffer":0,
			"byteLength":384,
			"byteOffset":21988,
			"target":34963
		},
		{
			"buffer":0,
			"byteLength":2496,
			"byteOffset":22372,
			"target":34962
		},
		{
			"buffer":0,
			"byteLength":2496,
			"byteOffset":24868,
			"target":34962
		},
		{
			"buffer":0,
			"byteLength":1664,
			"byteOffset":27364,
			"target":34962
		},
		{
			"buffer":0,
			"byteLength":576,
			"byteOffset":29028,
			"target":34962
		},
		{
			"buffer":0,
			"byteLength":576,
			"byteOffset":29604,
			"target":34962
		},
		{
			"buffer":0,
			"byteLength":384,
			"byteOffset":30180,
			"target":34962
		},
		{
			"buffer":0,
			"byteLength":768,
			"byteOffset":30564,
			"target":34962
		}
	],
	"buffers":[
		{
			"byteLength":31332,
			"uri":"Thermal-d93301bc0ba25a1f1c55d1771517f796.bin"
		}
	]
}
