{
	"asset":{
		"generator":"Khronos glTF Blender I/O v4.1.62",
		"version":"2.0"
	},
	"scene":0,
	"scenes":[
		{
			"name":"Scene",
			"nodes":[
				3,
				4,
				5,
				6,
				10,
				11,
				12,
				13
			]
		}
	],
	"nodes":[
		{
			"mesh":0,
			"name":"Plane",
			"rotation":[
				0.7071068286895752,
				0,
				0,
				0.7071068286895752
			],
			"scale":[
				0.08481016010046005,
				1.6979678869247437,
				0.7444217801094055
			],
			"translation":[
				0,
				-4.887463728664443e-05,
				0.10140132904052734
			]
		},
		{
			"mesh":0,
			"name":"Plane.001",
			"rotation":[
				0.3535533845424652,
				-0.6123724579811096,
				-0.6123723983764648,
				0.3535533845424652
			],
			"scale":[
				0.08481016010046005,
				1.6979678869247437,
				0.7444217801094055
			],
			"translation":[
				0,
				-4.887463728664443e-05,
				0.10140132904052734
			]
		},
		{
			"mesh":0,
			"name":"Plane.002",
			"rotation":[
				0.3535534143447876,
				0.6123725175857544,
				0.6123724579811096,
				0.3535533845424652
			],
			"scale":[
				0.08481016755104065,
				1.6979678869247437,
				0.7444217801094055
			],
			"translation":[
				0,
				-4.887463728664443e-05,
				0.10140132904052734
			]
		},
		{
			"children":[
				0,
				1,
				2
			],
			"name":"Empty",
			"rotation":[
				0,
				0,
				-3.814697265625e-06,
				1
			],
			"scale":[
				0.5889393091201782,
				0.5889393091201782,
				0.5889393091201782
			],
			"translation":[
				3,
				5.722881317138672,
				-1.1343843936920166
			]
		},
		{
			"mesh":1,
			"name":"Cylinder.005",
			"scale":[
				0.2576826810836792,
				2.838218927383423,
				0.2576826810836792
			],
			"translation":[
				3,
				0,
				-0.24674487113952637
			]
		},
		{
			"mesh":2,
			"name":"Cylinder.006",
			"rotation":[
				0.7071068286895752,
				0,
				0,
				0.7071068286895752
			],
			"scale":[
				0.44707027077674866,
				0.6568937301635742,
				0.44707027077674866
			],
			"translation":[
				3,
				5.722881317138672,
				-0.24674487113952637
			]
		},
		{
			"mesh":3,
			"name":"Cylinder.007",
			"rotation":[
				0.7071068286895752,
				0,
				0,
				0.7071067690849304
			],
			"scale":[
				0.16509346663951874,
				0.16509346663951874,
				0.16509346663951874
			],
			"translation":[
				3,
				5.722881317138672,
				-0.9692907333374023
			]
		},
		{
			"mesh":4,
			"name":"Plane.003",
			"rotation":[
				0.7071068286895752,
				0,
				0,
				0.7071068286895752
			],
			"scale":[
				0.08481016010046005,
				1.6979678869247437,
				0.7444217801094055
			],
			"translation":[
				0,
				-4.8937374231172726e-05,
				0.1014014482498169
			]
		},
		{
			"mesh":4,
			"name":"Plane.004",
			"rotation":[
				0.3535533845424652,
				-0.6123724579811096,
				-0.6123723983764648,
				0.3535533845424652
			],
			"scale":[
				0.08481016010046005,
				1.6979678869247437,
				0.7444217801094055
			],
			"translation":[
				0,
				-4.8937374231172726e-05,
				0.1014014482498169
			]
		},
		{
			"mesh":4,
			"name":"Plane.005",
			"rotation":[
				0.3535534143447876,
				0.6123725175857544,
				0.6123724579811096,
				0.3535533845424652
			],
			"scale":[
				0.08481016755104065,
				1.6979678869247437,
				0.7444217801094055
			],
			"translation":[
				0,
				-4.8937374231172726e-05,
				0.1014014482498169
			]
		},
		{
			"children":[
				7,
				8,
				9
			],
			"name":"Empty.001",
			"rotation":[
				0,
				0,
				-3.814697265625e-06,
				1
			],
			"scale":[
				0.5889393091201782,
				0.5889393091201782,
				0.5889393091201782
			],
			"translation":[
				-3.9984970092773438,
				5.743940353393555,
				-1.1264111995697021
			]
		},
		{
			"mesh":5,
			"name":"Cylinder.008",
			"scale":[
				0.2576826810836792,
				2.838218927383423,
				0.2576826810836792
			],
			"translation":[
				-3.9984970092773438,
				0.021058950573205948,
				-0.23877179622650146
			]
		},
		{
			"mesh":6,
			"name":"Cylinder.009",
			"rotation":[
				0.7071068286895752,
				0,
				0,
				0.7071068286895752
			],
			"scale":[
				0.44707027077674866,
				0.6568937301635742,
				0.44707027077674866
			],
			"translation":[
				-3.9984970092773438,
				5.743940353393555,
				-0.23877179622650146
			]
		},
		{
			"mesh":7,
			"name":"Cylinder.010",
			"rotation":[
				0.7071068286895752,
				0,
				0,
				0.7071067690849304
			],
			"scale":[
				0.16509346663951874,
				0.16509346663951874,
				0.16509346663951874
			],
			"translation":[
				-3.9984970092773438,
				5.743940353393555,
				-0.9613176584243774
			]
		}
	],
	"animations":[
		{
			"channels":[
				{
					"sampler":0,
					"target":{
						"node":3,
						"path":"rotation"
					}
				}
			],
			"name":"EmptyAction",
			"samplers":[
				{
					"input":38,
					"interpolation":"LINEAR",
					"output":39
				}
			]
		},
		{
			"channels":[
				{
					"sampler":0,
					"target":{
						"node":10,
						"path":"rotation"
					}
				}
			],
			"name":"EmptyAction.001",
			"samplers":[
				{
					"input":38,
					"interpolation":"LINEAR",
					"output":40
				}
			]
		}
	],
	"materials":[
		{
			"doubleSided":true,
			"name":"AirFarmBlades White",
			"pbrMetallicRoughness":{
				"baseColorFactor":[
					0.800000011920929,
					0.800000011920929,
					0.800000011920929,
					1
				],
				"metallicFactor":0
			}
		},
		{
			"doubleSided":true,
			"name":"Red blades",
			"pbrMetallicRoughness":{
				"baseColorFactor":[
					1,
					0,
					0.0007173657650128007,
					1
				]
			}
		},
		{
			"doubleSided":true,
			"name":"SPanel",
			"pbrMetallicRoughness":{
				"metallicFactor":0
			}
		}
	],
	"meshes":[
		{
			"name":"Plane.002",
			"primitives":[
				{
					"attributes":{
						"POSITION":0,
						"NORMAL":1,
						"TEXCOORD_0":2,
						"TANGENT":3
					},
					"indices":4,
					"material":0
				},
				{
					"attributes":{
						"POSITION":5,
						"NORMAL":6,
						"TEXCOORD_0":7,
						"TANGENT":8
					},
					"indices":9,
					"material":1
				}
			]
		},
		{
			"name":"Cylinder.011",
			"primitives":[
				{
					"attributes":{
						"POSITION":10,
						"NORMAL":11,
						"TEXCOORD_0":12
					},
					"indices":13,
					"material":2
				}
			]
		},
		{
			"name":"Cylinder.012",
			"primitives":[
				{
					"attributes":{
						"POSITION":14,
						"NORMAL":15,
						"TEXCOORD_0":16
					},
					"indices":17,
					"material":2
				}
			]
		},
		{
			"name":"Cylinder.013",
			"primitives":[
				{
					"attributes":{
						"POSITION":18,
						"NORMAL":19,
						"TEXCOORD_0":20
					},
					"indices":13
				}
			]
		},
		{
			"name":"Plane.003",
			"primitives":[
				{
					"attributes":{
						"POSITION":21,
						"NORMAL":22,
						"TEXCOORD_0":23,
						"TANGENT":24
					},
					"indices":4,
					"material":0
				},
				{
					"attributes":{
						"POSITION":25,
						"NORMAL":26,
						"TEXCOORD_0":27,
						"TANGENT":28
					},
					"indices":9,
					"material":1
				}
			]
		},
		{
			"name":"Cylinder.014",
			"primitives":[
				{
					"attributes":{
						"POSITION":29,
						"NORMAL":30,
						"TEXCOORD_0":31
					},
					"indices":13,
					"material":2
				}
			]
		},
		{
			"name":"Cylinder.015",
			"primitives":[
				{
					"attributes":{
						"POSITION":32,
						"NORMAL":33,
						"TEXCOORD_0":34
					},
					"indices":17,
					"material":2
				}
			]
		},
		{
			"name":"Cylinder.016",
			"primitives":[
				{
					"attributes":{
						"POSITION":35,
						"NORMAL":36,
						"TEXCOORD_0":37
					},
					"indices":13
				}
			]
		}
	],
	"accessors":[
		{
			"bufferView":0,
			"componentType":5126,
			"count":40,
			"max":[
				2.788438320159912,
				0.08999987691640854,
				0.00010999398364219815
			],
			"min":[
				-2.788438320159912,
				-2.4589218128312496e-07,
				-8.610382080078125
			],
			"type":"VEC3"
		},
		{
			"bufferView":1,
			"componentType":5126,
			"count":40,
			"type":"VEC3"
		},
		{
			"bufferView":2,
			"componentType":5126,
			"count":40,
			"type":"VEC2"
		},
		{
			"bufferView":3,
			"componentType":5126,
			"count":40,
			"type":"VEC4"
		},
		{
			"bufferView":4,
			"componentType":5123,
			"count":60,
			"type":"SCALAR"
		},
		{
			"bufferView":5,
			"componentType":5126,
			"count":16,
			"max":[
				2.788438320159912,
				0.08999982476234436,
				-3.637314796447754
			],
			"min":[
				-2.788438320159912,
				-1.9679593776800175e-07,
				-5.403651714324951
			],
			"type":"VEC3"
		},
		{
			"bufferView":6,
			"componentType":5126,
			"count":16,
			"type":"VEC3"
		},
		{
			"bufferView":7,
			"componentType":5126,
			"count":16,
			"type":"VEC2"
		},
		{
			"bufferView":8,
			"componentType":5126,
			"count":16,
			"type":"VEC4"
		},
		{
			"bufferView":9,
			"componentType":5123,
			"count":24,
			"type":"SCALAR"
		},
		{
			"bufferView":10,
			"componentType":5126,
			"count":48,
			"max":[
				0.7032302021980286,
				2,
				0.7032302021980286
			],
			"min":[
				-0.7032302021980286,
				0,
				-0.7032302021980286
			],
			"type":"VEC3"
		},
		{
			"bufferView":11,
			"componentType":5126,
			"count":48,
			"type":"VEC3"
		},
		{
			"bufferView":12,
			"componentType":5126,
			"count":48,
			"type":"VEC2"
		},
		{
			"bufferView":13,
			"componentType":5123,
			"count":84,
			"type":"SCALAR"
		},
		{
			"bufferView":14,
			"componentType":5126,
			"count":80,
			"max":[
				0.6199927926063538,
				1,
				0.6199930906295776
			],
			"min":[
				-0.6199927926063538,
				-1,
				-0.6199924945831299
			],
			"type":"VEC3"
		},
		{
			"bufferView":15,
			"componentType":5126,
			"count":80,
			"type":"VEC3"
		},
		{
			"bufferView":16,
			"componentType":5126,
			"count":80,
			"type":"VEC2"
		},
		{
			"bufferView":17,
			"componentType":5123,
			"count":132,
			"type":"SCALAR"
		},
		{
			"bufferView":18,
			"componentType":5126,
			"count":48,
			"max":[
				1,
				1,
				1
			],
			"min":[
				-1,
				-1.000000238418579,
				-1
			],
			"type":"VEC3"
		},
		{
			"bufferView":19,
			"componentType":5126,
			"count":48,
			"type":"VEC3"
		},
		{
			"bufferView":20,
			"componentType":5126,
			"count":48,
			"type":"VEC2"
		},
		{
			"bufferView":21,
			"componentType":5126,
			"count":40,
			"max":[
				2.788438320159912,
				0.08999987691640854,
				0.00010999398364219815
			],
			"min":[
				-2.788438320159912,
				-2.4589218128312496e-07,
				-8.610382080078125
			],
			"type":"VEC3"
		},
		{
			"bufferView":22,
			"componentType":5126,
			"count":40,
			"type":"VEC3"
		},
		{
			"bufferView":23,
			"componentType":5126,
			"count":40,
			"type":"VEC2"
		},
		{
			"bufferView":24,
			"componentType":5126,
			"count":40,
			"type":"VEC4"
		},
		{
			"bufferView":25,
			"componentType":5126,
			"count":16,
			"max":[
				2.788438320159912,
				0.08999982476234436,
				-3.637314796447754
			],
			"min":[
				-2.788438320159912,
				-1.9679593776800175e-07,
				-5.403651714324951
			],
			"type":"VEC3"
		},
		{
			"bufferView":26,
			"componentType":5126,
			"count":16,
			"type":"VEC3"
		},
		{
			"bufferView":27,
			"componentType":5126,
			"count":16,
			"type":"VEC2"
		},
		{
			"bufferView":28,
			"componentType":5126,
			"count":16,
			"type":"VEC4"
		},
		{
			"bufferView":29,
			"componentType":5126,
			"count":48,
			"max":[
				0.7032302021980286,
				2,
				0.7032302021980286
			],
			"min":[
				-0.7032302021980286,
				0,
				-0.7032302021980286
			],
			"type":"VEC3"
		},
		{
			"bufferView":30,
			"componentType":5126,
			"count":48,
			"type":"VEC3"
		},
		{
			"bufferView":31,
			"componentType":5126,
			"count":48,
			"type":"VEC2"
		},
		{
			"bufferView":32,
			"componentType":5126,
			"count":80,
			"max":[
				0.6199927926063538,
				1,
				0.6199930906295776
			],
			"min":[
				-0.6199927926063538,
				-1,
				-0.6199924945831299
			],
			"type":"VEC3"
		},
		{
			"bufferView":33,
			"componentType":5126,
			"count":80,
			"type":"VEC3"
		},
		{
			"bufferView":34,
			"componentType":5126,
			"count":80,
			"type":"VEC2"
		},
		{
			"bufferView":35,
			"componentType":5126,
			"count":48,
			"max":[
				1,
				1,
				1
			],
			"min":[
				-1,
				-1.000000238418579,
				-1
			],
			"type":"VEC3"
		},
		{
			"bufferView":36,
			"componentType":5126,
			"count":48,
			"type":"VEC3"
		},
		{
			"bufferView":37,
			"componentType":5126,
			"count":48,
			"type":"VEC2"
		},
		{
			"bufferView":38,
			"componentType":5126,
			"count":360,
			"max":[
				6
			],
			"min":[
				0.016666666666666666
			],
			"type":"SCALAR"
		},
		{
			"bufferView":39,
			"componentType":5126,
			"count":360,
			"type":"VEC4"
		},
		{
			"bufferView":40,
			"componentType":5126,
			"count":360,
			"type":"VEC4"
		}
	],
	"bufferViews":[
		{
			"buffer":0,
			"byteLength":480,
			"byteOffset":0,
			"target":34962
		},
		{
			"buffer":0,
			"byteLength":480,
			"byteOffset":480,
			"target":34962
		},
		{
			"buffer":0,
			"byteLength":320,
			"byteOffset":960,
			"target":34962
		},
		{
			"buffer":0,
			"byteLength":640,
			"byteOffset":1280,
			"target":34962
		},
		{
			"buffer":0,
			"byteLength":120,
			"byteOffset":1920,
			"target":34963
		},
		{
			"buffer":0,
			"byteLength":192,
			"byteOffset":2040,
			"target":34962
		},
		{
			"buffer":0,
			"byteLength":192,
			"byteOffset":2232,
			"target":34962
		},
		{
			"buffer":0,
			"byteLength":128,
			"byteOffset":2424,
			"target":34962
		},
		{
			"buffer":0,
			"byteLength":256,
			"byteOffset":2552,
			"target":34962
		},
		{
			"buffer":0,
			"byteLength":48,
			"byteOffset":2808,
			"target":34963
		},
		{
			"buffer":0,
			"byteLength":576,
			"byteOffset":2856,
			"target":34962
		},
		{
			"buffer":0,
			"byteLength":576,
			"byteOffset":3432,
			"target":34962
		},
		{
			"buffer":0,
			"byteLength":384,
			"byteOffset":4008,
			"target":34962
		},
		{
			"buffer":0,
			"byteLength":168,
			"byteOffset":4392,
			"target":34963
		},
		{
			"buffer":0,
			"byteLength":960,
			"byteOffset":4560,
			"target":34962
		},
		{
			"buffer":0,
			"byteLength":960,
			"byteOffset":5520,
			"target":34962
		},
		{
			"buffer":0,
			"byteLength":640,
			"byteOffset":6480,
			"target":34962
		},
		{
			"buffer":0,
			"byteLength":264,
			"byteOffset":7120,
			"target":34963
		},
		{
			"buffer":0,
			"byteLength":576,
			"byteOffset":7384,
			"target":34962
		},
		{
			"buffer":0,
			"byteLength":576,
			"byteOffset":7960,
			"target":34962
		},
		{
			"buffer":0,
			"byteLength":384,
			"byteOffset":8536,
			"target":34962
		},
		{
			"buffer":0,
			"byteLength":480,
			"byteOffset":8920,
			"target":34962
		},
		{
			"buffer":0,
			"byteLength":480,
			"byteOffset":9400,
			"target":34962
		},
		{
			"buffer":0,
			"byteLength":320,
			"byteOffset":9880,
			"target":34962
		},
		{
			"buffer":0,
			"byteLength":640,
			"byteOffset":10200,
			"target":34962
		},
		{
			"buffer":0,
			"byteLength":192,
			"byteOffset":10840,
			"target":34962
		},
		{
			"buffer":0,
			"byteLength":192,
			"byteOffset":11032,
			"target":34962
		},
		{
			"buffer":0,
			"byteLength":128,
			"byteOffset":11224,
			"target":34962
		},
		{
			"buffer":0,
			"byteLength":256,
			"byteOffset":11352,
			"target":34962
		},
		{
			"buffer":0,
			"byteLength":576,
			"byteOffset":11608,
			"target":34962
		},
		{
			"buffer":0,
			"byteLength":576,
			"byteOffset":12184,
			"target":34962
		},
		{
			"buffer":0,
			"byteLength":384,
			"byteOffset":12760,
			"target":34962
		},
		{
			"buffer":0,
			"byteLength":960,
			"byteOffset":13144,
			"target":34962
		},
		{
			"buffer":0,
			"byteLength":960,
			"byteOffset":14104,
			"target":34962
		},
		{
			"buffer":0,
			"byteLength":640,
			"byteOffset":15064,
			"target":34962
		},
		{
			"buffer":0,
			"byteLength":576,
			"byteOffset":15704,
			"target":34962
		},
		{
			"buffer":0,
			"byteLength":576,
			"byteOffset":16280,
			"target":34962
		},
		{
			"buffer":0,
			"byteLength":384,
			"byteOffset":16856,
			"target":34962
		},
		{
			"buffer":0,
			"byteLength":1440,
			"byteOffset":17240
		},
		{
			"buffer":0,
			"byteLength":5760,
			"byteOffset":18680
		},
		{
			"buffer":0,
			"byteLength":5760,
			"byteOffset":24440
		}
	],
	"buffers":[
		{
			"byteLength":30200,
			"uri":"WindFarm-41c94f67ad9b02b5a95c4e9546326eef.bin"
		}
	]
}
